<?xml version="1.0" encoding="utf-8"?>
<!-- Generator: Adobe Illustrator 16.0.0, SVG Export Plug-In . SVG Version: 6.00 Build 0)  -->
<!DOCTYPE svg PUBLIC "-//W3C//DTD SVG 1.1//EN" "http://www.w3.org/Graphics/SVG/1.1/DTD/svg11.dtd">
<svg version="1.1" id="Layer_1" xmlns="http://www.w3.org/2000/svg" xmlns:xlink="http://www.w3.org/1999/xlink" x="0px" y="0px"
	 width="141.73px" height="141.73px" viewBox="0 0 141.73 141.73" enable-background="new 0 0 141.73 141.73" xml:space="preserve">
<g>
	<path fill="#221F1F" d="M65.015,90.548c0.314,0.896,0.717,1.346,1.195,1.346c0.654,0,0.975-0.702,0.953-2.107
		c0-0.597-0.039-1.342-0.115-2.237c-0.064-0.814-0.265-1.695-0.592-2.641c-0.315-0.924-0.712-1.386-1.184-1.386v0.043
		c-0.687,0-1.019,0.722-0.996,2.165c0,0.645,0.043,1.386,0.13,2.223C64.496,88.787,64.698,89.653,65.015,90.548z"/>
	<path fill="#221F1F" d="M99.93,74.463l0.015,0.029c0.712,0,1.067-0.904,1.067-2.714c0-0.74-0.033-1.577-0.104-2.511
		c-0.077-1.078-0.197-2.221-0.361-3.421c-0.173-1.279-0.444-2.362-0.819-3.248c-0.375-0.875-0.822-1.313-1.346-1.313
		c-0.75,0-1.117,0.886-1.108,2.656c0,0.991,0.058,2.208,0.174,3.648c0.115,1.466,0.395,2.972,0.837,4.521
		C98.727,73.679,99.275,74.463,99.93,74.463z"/>
	<path fill="#221F1F" d="M109.542,43.545c0,1.426,0.404,2.139,1.213,2.139v-0.018c0.271,0,0.529-0.096,0.779-0.288
		c0.25-0.189,0.423-0.395,0.521-0.604l0.112-4.777C110.418,40.418,109.542,41.602,109.542,43.545z"/>
	<path fill="#221F1F" d="M46.15,34.942l-0.014-0.017c-0.568,0-0.975,0.365-1.215,1.1c-0.25,0.729-0.395,1.828-0.433,3.29h3.377
		C47.811,36.4,47.238,34.942,46.15,34.942z"/>
	<path fill="#221F1F" d="M22.898,92.208c0,1.424,0.401,2.14,1.213,2.14V94.33c0.269,0,0.529-0.097,0.779-0.289
		c0.25-0.189,0.423-0.395,0.52-0.604l0.115-4.778C23.774,89.081,22.898,90.265,22.898,92.208z"/>
	<path fill="#221F1F" d="M68.811,100.651c-0.271-0.23-0.654-0.403-1.155-0.521c-0.086-0.01-0.847-0.162-2.28-0.462
		c-1.511-0.314-2.459-0.521-2.844-0.62c-0.337,0.396-0.505,0.909-0.505,1.545c0,1.501,1.27,2.253,3.811,2.253l-0.015,0.027
		c0.953,0,1.761-0.126,2.425-0.376c0.654-0.25,0.981-0.609,0.981-1.082C69.229,101.138,69.09,100.883,68.811,100.651z"/>
	<path fill="#221F1F" d="M128.176,32.436v12.939c0,0.981,0.082,1.665,0.245,2.051c0.154,0.364,0.501,0.762,1.04,1.186v0.229h-9.021
		l-0.018-0.199c0.562-0.426,0.914-0.813,1.068-1.169c0.163-0.375,0.245-1.063,0.245-2.064v-12.79c0-0.941-0.048-1.647-0.146-2.121
		c-0.096-0.491-0.211-0.837-0.346-1.039s-0.395-0.52-0.779-0.953v-0.229c1.425-0.096,2.84-0.279,4.248-0.546
		C112.069,11.963,92.646,1.87,70.863,1.87C32.76,1.869,1.869,32.76,1.869,70.865c0,38.104,30.892,68.996,68.996,68.996
		c38.105,0,68.996-30.893,68.996-68.996C139.861,56.639,135.555,43.419,128.176,32.436z M121.074,53.463l-2.093,4.016h-0.158
		c-0.568-0.889-1.15-1.646-1.747-2.281c-0.625-0.664-1.148-0.995-1.573-0.995c-0.548,0-0.819,0.433-0.819,1.299
		c0,1.126,0.423,2.872,1.271,5.239h3.752v-0.245c0-2.329,0.437-4.177,1.299-5.543c0.866-1.366,2.259-2.05,4.173-2.05
		c1.529,0,3.361,0.395,5.498,1.184l-3.49,4.103l-0.176-0.087c-1.271-2.678-2.354-4.016-3.262-4.016h-0.087
		c-0.51,0-0.765,0.294-0.765,0.881c0,1.289,1.053,3.217,3.16,5.773h3.201l-0.271,1.111h-2.931v9.813c0,0.991,0.087,1.674,0.26,2.05
		c0.164,0.365,0.549,0.763,1.155,1.187v0.229h-9.14V74.9c0.561-0.424,0.914-0.813,1.068-1.17c0.163-0.375,0.245-1.063,0.245-2.063
		V61.85h-3.753v9.813c0,0.981,0.082,1.665,0.246,2.05c0.15,0.365,0.5,0.763,1.039,1.187v0.229h-9.021v-0.229
		c0.559-0.424,0.914-0.813,1.068-1.17c0.163-0.375,0.245-1.063,0.245-2.063v-9.813h-1.241V60.74h1.241v-0.13
		c0-2.348,0.69-4.172,2.076-5.471c1.388-1.302,3.226-1.948,5.516-1.948C117.976,53.188,119.313,53.28,121.074,53.463z M106.8,35.274
		c1.318-0.817,3.064-1.229,5.239-1.229c1.213,0,2.237,0.149,3.074,0.447c0.856,0.309,1.491,0.659,1.905,1.054
		c0.414,0.404,0.733,0.932,0.968,1.573c0.229,0.654,0.36,1.193,0.389,1.616c0.029,0.375,0.034,0.895,0.018,1.559l-0.115,5.615
		c0,0.654,0.217,0.981,0.646,0.981c0.452,0,0.84-0.338,1.155-1.014l0.26,0.115c-0.27,0.818-0.794,1.545-1.57,2.181
		c-0.779,0.637-1.795,0.952-3.046,0.952l-0.09,0.061c-1.251,0-2.147-0.327-2.696-0.981c-0.548-0.653-0.793-1.42-0.735-2.295h-0.058
		c-0.414,0.904-1.063,1.674-1.949,2.31c-0.875,0.638-1.915,0.952-3.117,0.952c-1.261,0-2.267-0.347-3.017-1.039
		c-0.751-0.69-1.126-1.565-1.126-2.627c0-0.814,0.245-1.565,0.733-2.252c0.49-0.683,1.192-1.27,2.107-1.761
		c0.904-0.49,1.866-0.909,2.887-1.256c0.962-0.327,2.144-0.649,3.536-0.967l0.028-2.742c0-1.049-0.403-1.573-1.212-1.573
		c-0.703,0-1.275,0.495-1.721,1.486c-0.449,0.991-0.77,2.16-0.949,3.508l-0.177,0.028l-4.085-1.807
		C104.558,37.069,105.462,36.102,106.8,35.274z M93.002,73.626c-1.502-1.184-2.252-3.055-2.252-5.611
		c0-2.553,0.768-4.473,2.295-5.762c1.539-1.29,3.618-1.935,6.235-1.935c2.492,0,4.483,0.602,5.976,1.805
		c1.491,1.202,2.237,3.074,2.237,5.614c0,2.56-0.766,4.479-2.295,5.759c-1.521,1.279-3.604,1.92-6.25,1.92l0.028-0.015
		C96.494,75.401,94.503,74.81,93.002,73.626z M87.561,34.438h9.19v0.229c-0.651,0.568-0.979,1.169-0.979,1.808
		c0,0.314,0.169,0.88,0.506,1.688c0.028,0.06,0.127,0.271,0.296,0.635c0.168,0.366,0.442,0.958,0.822,1.775
		c0.38,0.818,0.771,1.67,1.177,2.555c1.125-2.386,1.833-4.017,2.121-4.893c0.164-0.437,0.25-0.799,0.26-1.099
		c0-0.646-0.447-1.464-1.342-2.452v-0.231l4.546-0.014v0.229c-1.01,1.271-1.799,2.515-2.367,3.727l-4.878,10.436h-2.338
		L88.989,36.79c-0.337-0.751-0.813-1.458-1.429-2.122L87.561,34.438L87.561,34.438z M81.051,28.101
		c0.6-0.55,1.318-0.822,2.165-0.822c0.827,0,1.534,0.272,2.122,0.822c0.599,0.549,0.896,1.208,0.896,1.978
		c0,0.771-0.294,1.438-0.881,1.992s-1.294,0.837-2.121,0.837l-0.029,0.015c-0.847,0-1.567-0.281-2.165-0.852
		c-0.587-0.558-0.88-1.222-0.88-1.992C80.156,29.309,80.454,28.649,81.051,28.101z M78.958,35.375
		c2.646-0.173,5.223-0.635,7.725-1.385v11.402c0,0.979,0.082,1.664,0.242,2.049c0.154,0.366,0.501,0.761,1.039,1.184v0.231h-9.021
		l-0.029-0.217c0.562-0.426,0.914-0.813,1.068-1.171c0.164-0.375,0.245-1.063,0.245-2.063v-5.701c0-0.952-0.048-1.653-0.146-2.104
		c-0.104-0.481-0.222-0.823-0.347-1.025c-0.115-0.183-0.375-0.505-0.779-0.967L78.958,35.375L78.958,35.375z M67.685,34.957
		c3.714-1.925,6.139-3.611,7.271-5.063h0.394v4.561h3.045l-0.188,1.112h-2.8L75.32,43.85c-0.021,1.576,0.563,2.364,1.746,2.364
		c0.604,0,1.184-0.276,1.729-0.837l0.188,0.188c-0.435,0.876-1.14,1.698-2.121,2.468c-0.973,0.761-2.17,1.141-3.594,1.141v0.018
		c-1.265,0-2.295-0.361-3.104-1.083c-0.809-0.724-1.212-1.789-1.212-3.204V35.58h-1.271L67.685,34.957L67.685,34.957z M56.326,35.26
		c1.03-0.81,2.381-1.213,4.056-1.213c1.264,0,2.993,0.245,5.196,0.735l0.521,4.994l-0.231,0.058
		c-0.924-1.314-1.881-2.458-2.872-3.42c-1.011-0.979-1.891-1.473-2.642-1.473c-0.327,0-0.606,0.101-0.837,0.303
		c-0.231,0.202-0.35,0.491-0.35,0.866c0,0.289,0.067,0.554,0.202,0.794c0.125,0.222,0.396,0.472,0.811,0.751
		c0.423,0.288,0.765,0.5,1.022,0.635c0.597,0.317,1.111,0.587,1.544,0.812c1.35,0.689,2.401,1.462,3.161,2.309
		c0.76,0.848,1.14,1.901,1.14,3.161c0,1.396-0.493,2.526-1.484,3.392c-1,0.866-2.438,1.303-4.301,1.303l-0.072-0.029
		c-1.396,0-3.282-0.279-5.658-0.837l-0.621-5.369l0.217-0.072c0.981,1.463,1.997,2.718,3.045,3.77
		c1.068,1.065,2.025,1.603,2.872,1.603c0.375,0,0.693-0.102,0.953-0.303c0.26-0.202,0.393-0.491,0.393-0.866
		c0-0.491-0.258-0.962-0.768-1.415c-0.491-0.441-1.337-1.02-2.54-1.729c-0.625-0.356-1.121-0.671-1.484-0.938
		c-0.349-0.25-0.774-0.597-1.285-1.039c-0.529-0.462-0.919-0.979-1.169-1.559c-0.241-0.568-0.361-1.203-0.361-1.905
		C54.782,37.17,55.296,36.068,56.326,35.26z M55.979,78.742c0,0.771-0.293,1.435-0.88,1.991c-0.587,0.559-1.294,0.837-2.122,0.837
		l-0.029,0.015c-0.847,0-1.568-0.282-2.165-0.852c-0.587-0.561-0.88-1.224-0.88-1.991c0-0.771,0.298-1.43,0.895-1.978
		c0.599-0.552,1.318-0.823,2.165-0.823c0.828,0,1.535,0.271,2.122,0.823C55.681,77.313,55.979,77.972,55.979,78.742z M46.627,34.019
		c2.139,0,3.82,0.521,5.055,1.57c1.238,1.062,1.859,2.479,1.859,4.261v0.332l-9.05,0.026v0.061c0,0.924,0.146,1.718,0.433,2.381
		c0.289,0.664,0.681,1.17,1.169,1.516c0.491,0.35,0.996,0.592,1.519,0.736c0.52,0.144,1.073,0.217,1.66,0.217
		c1.915,0,3.273-0.646,4.085-1.948l0.173,0.086c-0.923,3.938-3.238,5.898-6.942,5.892c-2.261,0-4.146-0.673-5.656-2.021
		c-1.502-1.337-2.253-3.242-2.253-5.716c0-2.473,0.75-4.32,2.253-5.542C42.436,34.635,44.337,34.019,46.627,34.019z M28.354,48.611
		c0.558-0.424,0.914-0.813,1.065-1.17c0.163-0.375,0.245-1.063,0.245-2.063v-9.813h-1.27v-1.112h1.27v-0.245
		c0-2.328,0.436-4.176,1.299-5.542c0.866-1.366,2.252-2.05,4.157-2.05c1.53,0,3.363,0.396,5.499,1.184L37.128,31.9l-0.173-0.086
		c-1.261-2.675-2.343-4.016-3.248-4.016h-0.015c-0.51,0-0.767,0.297-0.767,0.884c0,1.289,1.055,3.214,3.16,5.771h3.19l-0.303,1.112
		H36.09v9.813c0,0.991,0.088,1.676,0.263,2.053c0.173,0.375,0.553,0.77,1.141,1.184v0.229h-9.137L28.354,48.611L28.354,48.611z
		 M32.121,96.842c-0.779,0.638-1.794,0.952-3.045,0.952l-0.086,0.061c-1.251,0-2.151-0.327-2.699-0.981s-0.794-1.419-0.733-2.295
		h-0.061c-0.414,0.904-1.063,1.675-1.948,2.313c-0.876,0.635-1.915,0.949-3.115,0.949c-1.264,0-2.269-0.346-3.02-1.039
		c-0.75-0.689-1.126-1.565-1.126-2.627c0-0.814,0.246-1.565,0.736-2.251c0.491-0.684,1.19-1.271,2.104-1.762
		c0.905-0.49,1.867-0.909,2.89-1.255c0.962-0.327,2.141-0.649,3.537-0.968l0.026-2.742c0-1.049-0.401-1.573-1.212-1.573
		c-0.703,0-1.272,0.496-1.718,1.486c-0.453,0.991-0.771,2.161-0.953,3.508l-0.173,0.028l-4.084-1.807
		c0.471-1.104,1.376-2.07,2.713-2.898c1.318-0.817,3.065-1.229,5.239-1.229c1.212,0,2.234,0.149,3.075,0.447
		c0.854,0.31,1.488,0.659,1.902,1.054c0.414,0.404,0.736,0.932,0.967,1.573c0.231,0.654,0.361,1.193,0.393,1.617
		c0.029,0.375,0.034,0.895,0.015,1.559l-0.116,5.614c0,0.654,0.22,0.981,0.649,0.981c0.452,0,0.837-0.339,1.155-1.014l0.26,0.116
		C33.425,95.479,32.9,96.206,32.121,96.842z M41.503,97.491h-2.338L33.58,85.453c-0.337-0.75-0.813-1.458-1.429-2.121v-0.229h9.194
		v0.229c-0.654,0.567-0.981,1.169-0.981,1.807c0,0.314,0.168,0.881,0.505,1.688c0.029,0.058,0.127,0.271,0.296,0.636
		c0.168,0.365,0.443,0.957,0.823,1.774s0.771,1.67,1.176,2.556c1.126-2.387,1.833-4.018,2.122-4.894
		c0.164-0.436,0.25-0.799,0.26-1.1c0-0.645-0.445-1.463-1.342-2.451v-0.23L48.75,83.1v0.229c-1.01,1.271-1.799,2.511-2.367,3.727
		L41.503,97.491z M48.662,97.302c0.561-0.424,0.914-0.813,1.068-1.169c0.164-0.375,0.246-1.063,0.246-2.063v-5.7
		c0-0.953-0.048-1.655-0.146-2.104c-0.104-0.481-0.222-0.823-0.346-1.024c-0.116-0.184-0.375-0.506-0.78-0.968v-0.23
		c2.646-0.174,5.22-0.636,7.722-1.386v11.402c0,0.979,0.082,1.665,0.245,2.05c0.154,0.365,0.5,0.76,1.04,1.184v0.23H48.69
		L48.662,97.302z M65.174,103.668c-1.79,0-3.435-0.237-4.937-0.722c-1.491-0.48-2.237-1.131-2.237-1.948
		c0-0.385,0.168-0.729,0.505-1.039c0.337-0.308,0.78-0.549,1.328-0.722s0.938-0.289,1.169-0.347
		c0.154-0.038,0.388-0.086,0.693-0.146c-2.107-0.674-3.161-1.698-3.161-3.075c0-0.808,0.361-1.515,1.082-2.121
		c0.722-0.604,1.665-1.022,2.829-1.256c-2.646-0.635-3.979-2.146-3.998-4.529c0-1.716,0.616-2.982,1.848-3.813
		c1.231-0.827,2.786-1.241,4.662-1.241h0.823c1.328,0,2.305-0.232,2.93-0.707c0.638-0.479,0.981-1.033,1.039-1.659l4.114,1.327
		v0.159c-0.299,0.442-0.838,0.837-1.617,1.186c-0.779,0.347-1.809,0.52-3.089,0.52c-0.673,0-1.424-0.058-2.251-0.173v0.145
		c1.944,0.311,3.416,0.813,4.417,1.519c0.991,0.702,1.486,1.728,1.486,3.074c0,3.012-2.372,4.518-7.115,4.518
		c-0.76,0-1.438-0.038-2.035-0.115c-0.635,0.048-0.953,0.229-0.953,0.534c0,0.192,0.168,0.317,0.505,0.375
		c0.021,0,0.061,0.007,0.115,0.021c0.058,0.015,0.146,0.028,0.26,0.051c0.116,0.02,0.231,0.043,0.35,0.07
		c0.362,0.076,1.108,0.223,2.234,0.435c1.068,0.202,2.324,0.462,3.77,0.779l-0.018,0.026c1.203,0.261,2.212,0.75,3.031,1.475
		c0.819,0.722,1.229,1.609,1.229,2.671c0,0.885-0.293,1.646-0.883,2.295c-0.587,0.645-1.359,1.135-2.321,1.472
		c-0.953,0.327-1.915,0.572-2.89,0.736C67.156,103.591,66.184,103.668,65.174,103.668z M93.16,97.505h-9.02v-0.229
		c0.548-0.436,0.906-0.832,1.082-1.198c0.174-0.354,0.26-1.034,0.26-2.035V87.95c0-0.75-0.158-1.313-0.479-1.688
		c-0.314-0.375-0.712-0.563-1.183-0.563c-0.549,0-1.098,0.342-1.646,1.025v7.332c0,0.988,0.072,1.674,0.219,2.05
		c0.145,0.365,0.483,0.76,1.022,1.184v0.23h-8.992v-0.23c0.561-0.424,0.914-0.813,1.068-1.169c0.163-0.376,0.245-1.063,0.245-2.063
		v-5.73c0-1.299-0.077-2.165-0.231-2.598c-0.151-0.442-0.5-0.952-1.039-1.53v-0.202c2.438-0.134,4.973-0.582,7.606-1.342v3.017
		c1.309-1.973,2.997-2.959,5.066-2.959c0.298,0,0.63,0.024,0.995,0.072c0.354,0.048,0.756,0.168,1.196,0.36
		c0.474,0.202,0.875,0.467,1.212,0.794c0.355,0.347,0.654,0.813,0.896,1.397c0.25,0.616,0.376,1.333,0.376,2.15v6.553h0.014
		c0,0.981,0.082,1.665,0.246,2.05c0.153,0.366,0.515,0.763,1.082,1.187L93.16,97.505L93.16,97.505z M107.94,95.874
		c-1.521,1.28-3.604,1.92-6.25,1.92l0.029-0.015c-2.483,0-4.478-0.592-5.979-1.775c-1.501-1.183-2.252-3.055-2.252-5.611
		c0-2.553,0.765-4.473,2.295-5.762c1.539-1.29,3.618-1.935,6.235-1.935c2.492,0,4.48,0.602,5.976,1.805
		c1.491,1.203,2.237,3.074,2.237,5.614C110.235,92.675,109.47,94.594,107.94,95.874z M129.519,97.505h-9.021v-0.229
		c0.549-0.436,0.909-0.832,1.083-1.198c0.173-0.354,0.26-1.034,0.26-2.035V87.95c0-0.75-0.156-1.313-0.477-1.688
		s-0.712-0.563-1.184-0.563c-0.552,0-1.1,0.342-1.646,1.025v7.332c0,0.988,0.072,1.674,0.217,2.05
		c0.146,0.365,0.485,0.76,1.024,1.184v0.23h-8.992v-0.23c0.559-0.424,0.914-0.813,1.068-1.169c0.164-0.376,0.245-1.063,0.245-2.063
		v-5.73c0-1.299-0.077-2.165-0.23-2.598c-0.154-0.442-0.501-0.952-1.039-1.53v-0.202c2.437-0.134,4.97-0.582,7.606-1.342v3.017
		c1.308-1.973,2.997-2.959,5.063-2.959c0.299,0,0.631,0.024,0.996,0.072c0.356,0.048,0.756,0.168,1.198,0.36
		c0.472,0.202,0.875,0.467,1.212,0.794c0.354,0.347,0.654,0.813,0.896,1.397c0.25,0.616,0.375,1.333,0.375,2.15v6.553h0.018
		c0,0.981,0.081,1.665,0.245,2.05c0.151,0.366,0.515,0.763,1.083,1.187L129.519,97.505L129.519,97.505z"/>
	<path fill="#221F1F" d="M103.293,88.225c-0.174-1.279-0.445-2.362-0.82-3.248c-0.375-0.875-0.822-1.313-1.345-1.313
		c-0.751,0-1.121,0.886-1.109,2.656c0,0.991,0.059,2.208,0.174,3.651c0.115,1.463,0.395,2.969,0.837,4.518
		c0.442,1.569,0.991,2.354,1.646,2.354l0.018,0.027c0.712,0,1.065-0.904,1.065-2.713c0-0.741-0.031-1.578-0.102-2.512
		C103.576,90.567,103.456,89.427,103.293,88.225z"/>
</g>
</svg>
